<svg width="133" height="133" viewBox="0 0 133 133" fill="none" xmlns="http://www.w3.org/2000/svg">
<g clip-path="url(#clip0_897_20750)">
<rect x="0.399414" y="0.198242" width="132" height="132" rx="66" fill="#FFF0F0"/>
<path d="M52.1185 85.8133C40.2791 86.5054 27.8574 104.941 23.1265 114.072C27.6707 121.516 43.087 136.405 68.3987 136.405C93.7103 136.405 126.419 122.989 116.999 102.805C105.327 86.755 87.2967 83.3656 78.9046 84.2346V88.7777C78.9046 90.4778 73.8944 98.1761 64.3579 98.1761C56.7287 98.1761 53.4934 93.3044 52.8294 90.8685L52.1185 85.8133Z" fill="#FCA5A5"/>
<path d="M56.5072 55.9196C56.5072 55.9196 54.4339 60.8849 55.5163 64.7242" stroke="#FCA5A5" stroke-width="1.66785" stroke-miterlimit="10" stroke-linecap="round" stroke-linejoin="round"/>
<path d="M52.7222 67.0981C52.7222 67.0981 54.1848 69.5993 58.1665 69.4372" stroke="#FCA5A5" stroke-width="1.66785" stroke-miterlimit="10" stroke-linecap="round" stroke-linejoin="round"/>
<path d="M53.506 48.6179C53.506 48.6179 51.3029 46.1113 47.3133 47.3269" stroke="#FCA5A5" stroke-width="1.66785" stroke-miterlimit="10" stroke-linecap="round" stroke-linejoin="round"/>
<path d="M60.0925 59.2028C60.5553 59.2063 61.021 58.8266 61.0253 58.2519L61.0444 55.6659C61.048 55.1871 60.6812 54.7054 60.1258 54.7013C59.663 54.6979 59.1974 55.0776 59.1931 55.6522L59.174 58.2382C59.1697 58.8129 59.5371 59.1987 60.0925 59.2028Z" fill="#FCA5A5"/>
<path d="M51.7615 59.1412C52.2243 59.1446 52.6899 58.7649 52.6942 58.1903L52.7134 55.6043C52.7169 55.1254 52.3502 54.6438 51.7948 54.6397C51.332 54.6362 50.8663 55.0159 50.862 55.5906L50.8429 58.1766C50.8386 58.7512 51.2986 59.1378 51.7615 59.1412Z" fill="#FCA5A5"/>
<path d="M41.5474 50.9238C41.5474 50.9238 35.4516 49.0588 35.2027 57.6774C35.0463 66.2966 43.1065 65.3985 43.1065 65.3985" stroke="#FCA5A5" stroke-width="1.66785" stroke-miterlimit="10" stroke-linecap="round" stroke-linejoin="round"/>
<path d="M42.2426 57.1545L38.0771 57.1237" stroke="#FCA5A5" stroke-width="1.66785" stroke-miterlimit="10" stroke-linecap="round" stroke-linejoin="round"/>
<path d="M82.3702 51.0345C82.7057 55.7303 81.4755 59.3609 81.4755 59.3609C81.4755 59.3609 83.8843 59.0914 90.516 51.0948C99.5757 40.2427 88.3558 30.2941 88.3558 30.2941C83.0586 20.5808 73.6776 24.8216 73.6776 24.8216C73.6776 24.8216 51.0135 11.3524 41.4534 27.2773C41.4534 27.2773 26.0265 37.2255 37.7048 48.7596" stroke="#FCA5A5" stroke-width="1.66785" stroke-miterlimit="10" stroke-linecap="round" stroke-linejoin="round"/>
<path d="M80.5982 52.8414C80.5982 52.8414 70.1305 53.8175 65.3696 46.6943" stroke="#FCA5A5" stroke-width="1.66785" stroke-miterlimit="10" stroke-linecap="round" stroke-linejoin="round"/>
<path d="M66.6526 48.428L68.9341 52.8509C68.9341 52.8509 50.6005 53.4814 47.6831 47.4255" stroke="#FCA5A5" stroke-width="1.66785" stroke-miterlimit="10" stroke-linecap="round" stroke-linejoin="round"/>
<path d="M47.6579 50.7779C47.6579 50.7779 43.7624 51.8026 41.6547 48.9136C41.5635 48.7213 41.2851 48.815 41.283 49.1024C41.6377 51.2122 42.4317 56.4861 42.4012 60.6045C42.3622 65.8723 46.3457 77.9703 60.8728 78.8441C74.7526 79.6174 80.4904 71.2698 81.5639 63.8067C81.6614 63.1369 82.1278 62.6615 82.7758 62.6663L86.7589 62.3126" stroke="#FCA5A5" stroke-width="1.66785" stroke-miterlimit="10" stroke-linecap="round" stroke-linejoin="round"/>
<path d="M49.0682 75.6538L49.2485 89.2869C49.3485 90.7019 49.97 91.9592 51.0482 92.9422C54.5663 96.2646 63.8573 102.72 76.4436 93.3016C78.0026 92.1328 78.9304 90.1007 78.8003 88.0827L78.7776 71.7155V71.7155C78.7776 71.7155 86.6011 73.2 89.1158 70.3916C91.1637 68.1043 92.0436 64.7516 91.245 60.2512C89.2707 54.0955 86.5988 55.8375 86.5988 55.8375" stroke="#FCA5A5" stroke-width="1.66785" stroke-miterlimit="10" stroke-linecap="round" stroke-linejoin="round"/>
<path d="M78.5849 76.1911L48.7753 88.7294L47.9375 72.9963C47.9375 72.9963 59.1521 80.7433 65.603 78.8604C75.1677 76.0687 78.783 71.0511 78.5847 71.7912C78.451 72.6478 78.5849 76.1911 78.5849 76.1911Z" fill="#FCA5A5"/>
<path d="M82.6408 93.8001C82.6408 93.8001 80.0874 103.329 64.6117 104.934C49.136 106.538 42.1203 90.8754 42.1203 90.8754" stroke="#FCA5A5" stroke-width="1.66785" stroke-miterlimit="10" stroke-linecap="round" stroke-linejoin="round"/>
<path d="M50.7734 81.4739C50.7734 81.4739 29.9654 87.2409 20.3041 107.91" stroke="#FCA5A5" stroke-width="1.66785" stroke-miterlimit="10" stroke-linecap="round" stroke-linejoin="round"/>
<path d="M79.012 80.9166C79.012 80.9166 119.383 90.0702 120.119 114.013" stroke="#FCA5A5" stroke-width="1.66785" stroke-miterlimit="10" stroke-linecap="round" stroke-linejoin="round"/>
</g>
<defs>
<clipPath id="clip0_897_20750">
<rect x="0.399414" y="0.198242" width="132" height="132" rx="66" fill="white"/>
</clipPath>
</defs>
</svg>
