<svg width="133" height="133" viewBox="0 0 133 133" fill="none" xmlns="http://www.w3.org/2000/svg">
<g clip-path="url(#clip0_897_20729)">
<rect x="0.399414" y="0.198242" width="132" height="132" rx="66" fill="white"/>
<circle cx="65.8994" cy="65.6982" r="65.5" fill="#FFF0F0"/>
<path d="M48.9173 88.1976C34.9052 79.4178 9.55493 83.1062 -0.864258 87.0568L-0.545345 96.3062C-0.315375 93.8956 1.98958 94.2227 9.36965 114.816C16.7497 135.409 23.8258 135.319 26.4414 132.701H109.361C117.586 124.005 132.282 104.73 125.27 97.1991C116.505 87.7852 112.529 85.1071 103.44 83.1594C96.1681 81.6013 84.0253 84.4301 78.8628 86.0393L51.3764 101.409C51.4183 101.132 50.9852 98.1022 48.9173 88.1976Z" fill="#FCA5A5"/>
<path d="M55.495 55.9191C55.495 55.9191 53.4217 60.8844 54.5041 64.7237" stroke="#FCA5A5" stroke-width="1.44525" stroke-miterlimit="10" stroke-linecap="round" stroke-linejoin="round"/>
<path d="M60.092 59.2027C60.5549 59.2061 61.0205 58.8265 61.0248 58.2518L61.0439 55.6658C61.0475 55.1869 60.6807 54.7053 60.1254 54.7012C59.6625 54.6978 59.1969 55.0774 59.1926 55.6521L59.1735 58.2381C59.1692 58.8127 59.5366 59.1986 60.092 59.2027Z" fill="#FCA5A5"/>
<path d="M51.761 59.1409C52.2238 59.1444 52.6895 58.7647 52.6937 58.19L52.7129 55.604C52.7164 55.1252 52.3497 54.6435 51.7943 54.6394C51.3315 54.636 50.8658 55.0157 50.8616 55.5903L50.8424 58.1763C50.8382 58.751 51.2981 59.1375 51.761 59.1409Z" fill="#FCA5A5"/>
<path d="M41.5474 50.9236C41.5474 50.9236 35.4516 49.0586 35.2027 57.6771C35.0463 66.2963 43.1065 65.3982 43.1065 65.3982" stroke="#FCA5A5" stroke-width="1.44525" stroke-miterlimit="10" stroke-linecap="round" stroke-linejoin="round"/>
<path d="M42.2421 57.154L38.0767 57.1232" stroke="#FCA5A5" stroke-width="1.44525" stroke-miterlimit="10" stroke-linecap="round" stroke-linejoin="round"/>
<path d="M47.6579 50.7775C47.6579 50.7775 43.7624 51.8023 41.6547 48.9132C41.5635 48.721 41.2851 48.8147 41.283 49.102C41.6377 51.2118 42.4317 56.4857 42.4012 60.6041C42.3622 65.8719 46.3457 77.9699 60.8728 78.8438C74.7526 79.617 80.4904 71.2694 81.5639 63.8063C81.6614 63.1366 82.1278 62.6611 82.7757 62.6659L86.7589 62.3123" stroke="#FCA5A5" stroke-width="1.44525" stroke-miterlimit="10" stroke-linecap="round" stroke-linejoin="round"/>
<path d="M49.0677 75.6533L49.248 87.2634M78.7998 86.5649L78.7771 71.715V71.715C78.7771 71.715 86.6006 73.1995 89.1153 70.3911C91.1632 68.1038 92.0431 64.7511 91.2445 60.2507C89.2701 54.095 86.5983 55.837 86.5983 55.837" stroke="#FCA5A5" stroke-width="1.44525" stroke-miterlimit="10" stroke-linecap="round" stroke-linejoin="round"/>
<path d="M78.5849 76.1904L48.7753 88.7287L47.9375 72.9957C47.9375 72.9957 59.1521 80.7426 65.603 78.8598C75.1677 76.0681 78.783 71.0505 78.5847 71.7906C78.451 72.6472 78.5849 76.1904 78.5849 76.1904Z" fill="#FCA5A5"/>
<path d="M49.1362 86.7686C47.1932 82.1967 36.1406 74.4245 7.47501 79.9108C-21.1906 85.397 -19.8991 90.0832 -15.6701 91.7405" stroke="#FCA5A5" stroke-width="1.44525" stroke-miterlimit="10" stroke-linecap="round" stroke-linejoin="round"/>
<path d="M78.8222 86.2508C86.7087 83.4505 105.473 79.5579 116.171 88.4731C126.869 97.3882 133.887 108.761 136.059 113.333" stroke="#FCA5A5" stroke-width="1.44525" stroke-miterlimit="10" stroke-linecap="round" stroke-linejoin="round"/>
<path d="M59.3285 48.2136L67.3722 46.899" stroke="#FCA5A5" stroke-width="1.44525" stroke-miterlimit="10" stroke-linecap="round" stroke-linejoin="round"/>
<path d="M60.0308 68.5936C60.6321 69.3153 62.2533 70.3257 63.9276 68.5936" stroke="#FCA5A5" stroke-width="1.44525" stroke-miterlimit="10" stroke-linecap="round" stroke-linejoin="round"/>
<path d="M48.5566 42.1796C48.5806 45.331 50.736 51.7203 59.1655 52.0668C66.1929 52.3125 69.561 51.0771 70.3666 50.4287" stroke="#FCA5A5" stroke-width="1.44525" stroke-miterlimit="10" stroke-linecap="round" stroke-linejoin="round"/>
<path d="M49.1528 87.4225L51.2527 101.568L78.7696 86.2069" stroke="#FCA5A5" stroke-width="1.44525" stroke-miterlimit="10" stroke-linecap="round" stroke-linejoin="round"/>
<path d="M51.918 109.147L85.7721 88.0553M66.533 40.3326C68.0166 43.7767 72.7641 51.1258 79.8854 52.9697" stroke="#FCA5A5" stroke-width="1.44525" stroke-miterlimit="10" stroke-linecap="round" stroke-linejoin="round"/>
<path d="M50.3078 23.834C43.5514 25.4805 28.7669 35.6731 39.2364 49.3829" stroke="#FCA5A5" stroke-width="1.44525" stroke-miterlimit="10" stroke-linecap="round" stroke-linejoin="round"/>
<path d="M50.5625 23.8339C55.7007 19.2351 69.1792 12.7968 81.9877 23.8339C94.7963 34.8711 90.9583 48.5312 87.4382 53.9816" stroke="#FCA5A5" stroke-width="1.44525" stroke-miterlimit="10" stroke-linecap="round" stroke-linejoin="round"/>
</g>
<defs>
<clipPath id="clip0_897_20729">
<rect x="0.399414" y="0.198242" width="132" height="132" rx="66" fill="white"/>
</clipPath>
</defs>
</svg>
